<svg width="64" height="64" viewBox="0 0 64 64" fill="none" xmlns="http://www.w3.org/2000/svg">
<g clip-path="url(#clip0_1_3)">
<circle cx="32" cy="32" r="32" fill="#007BFF"/>
<path d="M23.7109 36.5293V18.4062H27.0859V36.5293C27.0859 38.2168 26.7402 39.6406 26.0488 40.8008C25.3574 41.9609 24.4023 42.8457 23.1836 43.4551C21.9766 44.0527 20.5879 44.3516 19.0176 44.3516C17.4473 44.3516 16.0527 44.082 14.834 43.543C13.6152 43.0039 12.6602 42.1836 11.9688 41.082C11.2773 39.9805 10.9316 38.5918 10.9316 36.916H14.3242C14.3242 37.9941 14.5234 38.8789 14.9219 39.5703C15.3203 40.2617 15.8711 40.7715 16.5742 41.0996C17.2891 41.4277 18.1035 41.5918 19.0176 41.5918C19.9082 41.5918 20.7051 41.4043 21.4082 41.0293C22.123 40.6426 22.6855 40.0742 23.0957 39.3242C23.5059 38.5625 23.7109 37.6309 23.7109 36.5293ZM36.2266 18.4062V44H32.834V18.4062H36.2266ZM51.6777 18.4062L41.043 30.3418L35.0664 36.5469L34.5039 32.9258L39.0039 27.9688L47.5996 18.4062H51.6777ZM48.4082 44L38.9336 31.5195L40.9551 28.8301L52.4512 44H48.4082Z" fill="white"/>
</g>
<defs>
<clipPath id="clip0_1_3">
<rect width="64" height="64" fill="white"/>
</clipPath>
</defs>
</svg>
