<svg width="64" height="64" viewBox="0 0 64 64" fill="none" xmlns="http://www.w3.org/2000/svg">
<g clip-path="url(#clip0_2_10)">
<g clip-path="url(#clip1_2_10)">
<mask id="mask0_2_10" style="mask-type:luminance" maskUnits="userSpaceOnUse" x="0" y="0" width="64" height="64">
<path d="M64 0H0V64H64V0Z" fill="white"/>
</mask>
<g mask="url(#mask0_2_10)">
<path d="M32 64C49.6731 64 64 49.6731 64 32C64 14.3269 49.6731 0 32 0C14.3269 0 0 14.3269 0 32C0 49.6731 14.3269 64 32 64Z" fill="#007BFF"/>
<path d="M24.3906 36.0312V20.1875H28.6875V36.0312C28.6875 37.5417 28.3594 38.8386 27.7031 39.9219C27.0469 40.9948 26.1511 41.8177 25.0156 42.3906C23.8802 42.9636 22.5989 43.25 21.1719 43.25C19.7031 43.25 18.4011 43.0052 17.2656 42.5156C16.1302 42.0156 15.2396 41.2552 14.5938 40.2344C13.9583 39.2136 13.6406 37.9167 13.6406 36.3438H17.9531C17.9531 37.1979 18.0833 37.8854 18.3438 38.4062C18.6042 38.9271 18.9739 39.3021 19.4531 39.5312C19.9427 39.7604 20.5156 39.875 21.1719 39.875C21.8073 39.875 22.3646 39.7292 22.8438 39.4375C23.3333 39.1354 23.7136 38.6979 23.9844 38.125C24.2552 37.5521 24.3906 36.8542 24.3906 36.0312ZM37.25 20.1875V42.9375H32.9531V20.1875H37.25ZM50.9062 20.1875L41.7812 31.2812L36.5625 36.8594L35.7969 32.6875L39.4219 27.9844L45.6406 20.1875H50.9062ZM46.125 42.9375L39.0469 32.2812L42.125 29.5L51.2344 42.9375H46.125Z" fill="white"/>
</g>
</g>
</g>
<defs>
<clipPath id="clip0_2_10">
<rect width="64" height="64" fill="white"/>
</clipPath>
<clipPath id="clip1_2_10">
<rect width="64" height="64" fill="white"/>
</clipPath>
</defs>
</svg>
